# xmcd CD database file
#
# Track frame offsets:
#	150
#	18829
#	36529
#	50567
#	62354
#	78959
#	96987
#	109876
#	127040
#	142928
#	165311
#
# Disc length: 2324 seconds
#
# Revision: 0
# Processed by: cddbd v1.5.1PL0 Copyright (c) Steve Scherf et al.
# Submitted via: CDex 1.51
#
DISCID=8b09120b
DTITLE=Various Artist - Holiday Jazz
DYEAR=1900
DGENRE=Jazz
TTITLE0=Little Drummer Boy
TTITLE1=Have Yourself A Merry Little Christmas
TTITLE2=Winter Wonderland
TTITLE3=Away In A Manger
TTITLE4=The Christmas Song
TTITLE5=Silver Bells
TTITLE6=White Christmas
TTITLE7=Silent Night
TTITLE8=Greensleeves
TTITLE9=Chaunakah Song
TTITLE10=Data
EXTD=
EXTT0=
EXTT1=
EXTT2=
EXTT3=
EXTT4=
EXTT5=
EXTT6=
EXTT7=
EXTT8=
EXTT9=
EXTT10=
PLAYORDER=
